<?xml version="1.0" encoding="UTF-8" standalone="no" ?>
<!DOCTYPE svg PUBLIC "-//W3C//DTD SVG 1.1//EN" "http://www.w3.org/Graphics/SVG/1.1/DTD/svg11.dtd">
<svg xmlns="http://www.w3.org/2000/svg" xmlns:xlink="http://www.w3.org/1999/xlink" version="1.1" width="1080" height="1080" viewBox="0 0 1080 1080" xml:space="preserve">
<desc>Created with Fabric.js 5.2.4</desc>
<defs>
</defs>
<g transform="matrix(1 0 0 1 540 540)" id="b0b3ce47-5a9e-4d37-b274-66afb2f2f002"  >
<rect style="stroke: none; stroke-width: 1; stroke-dasharray: none; stroke-linecap: butt; stroke-dashoffset: 0; stroke-linejoin: miter; stroke-miterlimit: 4; fill: rgb(255,255,255); fill-rule: nonzero; opacity: 1; visibility: hidden;" vector-effect="non-scaling-stroke"  x="-540" y="-540" rx="0" ry="0" width="1080" height="1080" />
</g>
<g transform="matrix(1 0 0 1 540 540)" id="fcb2d74c-3057-45d0-a9dc-8f7c54dc4e2a"  >
</g>
<g transform="matrix(1 0 0 1 993.41 540)"  >
<g style="" vector-effect="non-scaling-stroke"   >
		<g transform="matrix(1 0 0 1 0 0)"  >
<rect style="stroke: none; stroke-width: 1; stroke-dasharray: none; stroke-linecap: butt; stroke-dashoffset: 0; stroke-linejoin: miter; stroke-miterlimit: 4; fill: rgb(255,255,255); fill-rule: nonzero; opacity: 1;" vector-effect="non-scaling-stroke"  x="-1260" y="-1260" rx="0" ry="0" width="2520" height="2520" />
</g>
		<g transform="matrix(1 0 0 1 469.87 -3.96)"  >
<path style="stroke: none; stroke-width: 1; stroke-dasharray: none; stroke-linecap: butt; stroke-dashoffset: 0; stroke-linejoin: miter; stroke-miterlimit: 4; fill: rgb(0,0,0); fill-rule: evenodd; opacity: 1;" vector-effect="non-scaling-stroke"  transform=" translate(-1519.87, -1046.04)" d="M 1275.300781 733.550781 L 1764.429688 733.550781 C 1801.789062 733.550781 1832.359375 764.121094 1832.359375 801.480469 L 1832.359375 1290.605469 C 1832.359375 1327.96875 1801.789062 1358.535156 1764.429688 1358.535156 L 1275.300781 1358.535156 C 1237.941406 1358.535156 1207.371094 1327.96875 1207.371094 1290.605469 L 1207.371094 801.480469 C 1207.371094 764.121094 1237.941406 733.550781 1275.300781 733.550781" stroke-linecap="round" />
</g>
		<g transform="matrix(0.1 0 0 -0.1 469.87 -3.96)"  >
<path style="stroke: rgb(0,0,0); stroke-width: 5.0003; stroke-dasharray: none; stroke-linecap: butt; stroke-dashoffset: 0; stroke-linejoin: miter; stroke-miterlimit: 2.61313; fill: none; fill-rule: nonzero; opacity: 1;" vector-effect="non-scaling-stroke"  transform=" translate(-15198.65, -10539.57)" d="M 12753.007812 13664.492188 L 17644.296875 13664.492188 C 18017.890625 13664.492188 18323.59375 13358.789062 18323.59375 12985.195312 L 18323.59375 8093.945312 C 18323.59375 7720.3125 18017.890625 7414.648438 17644.296875 7414.648438 L 12753.007812 7414.648438 C 12379.414062 7414.648438 12073.710938 7720.3125 12073.710938 8093.945312 L 12073.710938 12985.195312 C 12073.710938 13358.789062 12379.414062 13664.492188 12753.007812 13664.492188 Z M 12753.007812 13664.492188" stroke-linecap="round" />
</g>
		<g transform="matrix(1 0 0 1 469.86 -3.96)"  >
<path style="stroke: none; stroke-width: 1; stroke-dasharray: none; stroke-linecap: butt; stroke-dashoffset: 0; stroke-linejoin: miter; stroke-miterlimit: 4; fill: rgb(255,255,255); fill-rule: evenodd; opacity: 1;" vector-effect="non-scaling-stroke"  transform=" translate(-1519.86, -1046.04)" d="M 1365.648438 1017.300781 L 1365.648438 1171.796875 L 1365.679688 1172.644531 L 1365.738281 1173.488281 L 1365.800781 1174.324219 L 1365.890625 1175.160156 L 1366.019531 1175.984375 C 1366.109375 1176.535156 1366.199219 1177.074219 1366.320312 1177.617188 C 1366.441406 1178.15625 1366.558594 1178.691406 1366.691406 1179.21875 L 1366.898438 1180.011719 C 1367.050781 1180.53125 1367.199219 1181.054688 1367.378906 1181.5625 C 1367.660156 1182.335938 1367.929688 1183.09375 1368.269531 1183.835938 L 1368.691406 1184.8125 C 1368.878906 1185.21875 1369.089844 1185.628906 1369.269531 1186.027344 L 1369.671875 1186.738281 L 1370.058594 1187.4375 L 1370.460938 1188.128906 L 1370.878906 1188.804688 L 1371.308594 1189.476562 L 1371.761719 1190.132812 L 1372.25 1190.777344 C 1372.890625 1191.628906 1373.558594 1192.449219 1374.289062 1193.234375 L 1374.839844 1193.816406 C 1375.929688 1194.972656 1377.121094 1196.046875 1378.359375 1197.03125 C 1378.789062 1197.359375 1379.21875 1197.683594 1379.640625 1197.992188 L 1380.28125 1198.445312 L 1380.949219 1198.886719 L 1381.648438 1199.3125 L 1382.320312 1199.71875 L 1383.019531 1200.109375 L 1383.75 1200.488281 L 1384.449219 1200.847656 C 1384.929688 1201.078125 1385.421875 1201.304688 1385.941406 1201.511719 L 1386.671875 1201.816406 L 1387.429688 1202.109375 L 1388.191406 1202.378906 L 1389.160156 1202.683594 C 1389.621094 1202.824219 1390.070312 1202.960938 1390.558594 1203.078125 C 1393.210938 1203.761719 1395.96875 1204.125 1398.828125 1204.125 L 1466.960938 1204.125 L 1466.960938 1131.855469 C 1466.960938 1113.578125 1481.859375 1098.671875 1500.140625 1098.671875 L 1539.558594 1098.671875 C 1557.839844 1098.671875 1572.738281 1113.578125 1572.738281 1131.855469 L 1572.738281 1204.125 L 1640.898438 1204.125 C 1643.761719 1204.128906 1646.519531 1203.765625 1649.171875 1203.078125 C 1649.628906 1202.960938 1650.078125 1202.824219 1650.539062 1202.683594 L 1651.511719 1202.378906 L 1652.269531 1202.109375 L 1653.03125 1201.816406 L 1653.789062 1201.511719 C 1654.28125 1201.304688 1654.769531 1201.078125 1655.25 1200.847656 L 1655.980469 1200.488281 L 1656.679688 1200.109375 L 1657.378906 1199.71875 L 1658.078125 1199.3125 L 1658.75 1198.886719 L 1659.421875 1198.445312 L 1660.058594 1197.992188 C 1660.511719 1197.683594 1660.941406 1197.359375 1661.371094 1197.03125 C 1662.609375 1196.042969 1663.800781 1194.972656 1664.890625 1193.816406 L 1665.441406 1193.234375 C 1666.140625 1192.445312 1666.839844 1191.628906 1667.449219 1190.777344 L 1667.941406 1190.132812 L 1668.390625 1189.476562 L 1668.820312 1188.804688 L 1669.238281 1188.128906 L 1669.671875 1187.4375 L 1670.058594 1186.738281 L 1670.429688 1186.027344 C 1670.640625 1185.628906 1670.828125 1185.21875 1671.039062 1184.8125 L 1671.460938 1183.835938 C 1671.769531 1183.09375 1672.070312 1182.335938 1672.308594 1181.5625 C 1672.5 1181.054688 1672.648438 1180.53125 1672.800781 1180.011719 L 1673.011719 1179.21875 C 1673.171875 1178.691406 1673.289062 1178.15625 1673.410156 1177.617188 C 1673.5 1177.074219 1673.589844 1176.53125 1673.679688 1175.984375 L 1673.808594 1175.160156 L 1673.988281 1173.488281 L 1674.019531 1172.644531 L 1674.050781 1171.796875 L 1674.078125 1170.941406 L 1674.078125 1017.300781 C 1674.078125 1007.128906 1670 998.390625 1662.21875 991.859375 L 1548.171875 896.28125 C 1534.941406 885.191406 1504.789062 885.191406 1491.53125 896.28125 L 1377.511719 991.859375 C 1369.730469 998.390625 1365.648438 1007.128906 1365.648438 1017.300781" stroke-linecap="round" />
</g>
		<g transform="matrix(1 0 0 1 -457.87 -3.96)"  >
<path style="stroke: none; stroke-width: 1; stroke-dasharray: none; stroke-linecap: butt; stroke-dashoffset: 0; stroke-linejoin: miter; stroke-miterlimit: 4; fill: rgb(255,255,255); fill-rule: evenodd; opacity: 1;" vector-effect="non-scaling-stroke"  transform=" translate(-592.13, -1046.04)" d="M 347.574219 733.550781 L 836.695312 733.550781 C 874.058594 733.550781 904.628906 764.121094 904.628906 801.480469 L 904.628906 1290.605469 C 904.628906 1327.96875 874.058594 1358.535156 836.695312 1358.535156 L 347.574219 1358.535156 C 310.210938 1358.535156 279.640625 1327.96875 279.640625 1290.605469 L 279.640625 801.480469 C 279.640625 764.121094 310.210938 733.550781 347.574219 733.550781" stroke-linecap="round" />
</g>
		<g transform="matrix(1 0 0 1 -457.87 -3.96)"  >
<path style="stroke: none; stroke-width: 1; stroke-dasharray: none; stroke-linecap: butt; stroke-dashoffset: 0; stroke-linejoin: miter; stroke-miterlimit: 4; fill: rgb(0,0,0); fill-rule: nonzero; opacity: 1;" vector-effect="non-scaling-stroke"  transform=" translate(-592.13, -1046.04)" d="M 347.574219 721.550781 L 836.695312 721.550781 C 858.691406 721.550781 878.675781 730.539062 893.160156 745.019531 C 907.640625 759.5 916.628906 779.488281 916.628906 801.480469 L 916.628906 1290.605469 C 916.628906 1312.597656 907.640625 1332.585938 893.160156 1347.066406 C 878.675781 1361.546875 858.691406 1370.535156 836.695312 1370.535156 L 347.574219 1370.535156 C 325.578125 1370.535156 305.59375 1361.546875 291.109375 1347.066406 C 276.628906 1332.585938 267.640625 1312.597656 267.640625 1290.605469 L 267.640625 801.480469 C 267.640625 779.488281 276.628906 759.5 291.109375 745.019531 C 305.59375 730.539062 325.578125 721.550781 347.574219 721.550781 Z M 836.695312 745.550781 L 347.574219 745.550781 C 332.203125 745.550781 318.222656 751.839844 308.078125 761.988281 C 297.9375 772.128906 291.640625 786.109375 291.640625 801.480469 L 291.640625 1290.605469 C 291.640625 1305.972656 297.9375 1319.953125 308.078125 1330.097656 C 318.222656 1340.242188 332.203125 1346.535156 347.574219 1346.535156 L 836.695312 1346.535156 C 852.066406 1346.535156 866.046875 1340.242188 876.191406 1330.097656 C 886.332031 1319.953125 892.628906 1305.972656 892.628906 1290.605469 L 892.628906 801.480469 C 892.628906 786.109375 886.332031 772.128906 876.191406 761.988281 C 866.046875 751.839844 852.066406 745.550781 836.695312 745.550781" stroke-linecap="round" />
</g>
		<g transform="matrix(1 0 0 1 -457.87 -3.96)"  >
<path style="stroke: none; stroke-width: 1; stroke-dasharray: none; stroke-linecap: butt; stroke-dashoffset: 0; stroke-linejoin: miter; stroke-miterlimit: 4; fill: rgb(0,0,0); fill-rule: evenodd; opacity: 1;" vector-effect="non-scaling-stroke"  transform=" translate(-592.13, -1046.04)" d="M 437.921875 1017.300781 L 437.921875 1171.796875 L 437.953125 1172.644531 L 438.011719 1173.488281 L 438.074219 1174.324219 L 438.164062 1175.160156 L 438.285156 1175.984375 C 438.378906 1176.535156 438.46875 1177.074219 438.589844 1177.617188 C 438.710938 1178.15625 438.835938 1178.691406 438.953125 1179.21875 L 439.167969 1180.011719 C 439.320312 1180.53125 439.472656 1181.054688 439.65625 1181.5625 C 439.929688 1182.335938 440.203125 1183.09375 440.535156 1183.835938 L 440.964844 1184.8125 C 441.144531 1185.21875 441.359375 1185.628906 441.539062 1186.027344 L 441.9375 1186.738281 L 442.332031 1187.4375 L 442.726562 1188.128906 L 443.152344 1188.804688 L 443.578125 1189.476562 L 444.035156 1190.132812 L 444.519531 1190.777344 C 445.160156 1191.628906 445.828125 1192.449219 446.558594 1193.234375 L 447.105469 1193.816406 C 448.199219 1194.972656 449.386719 1196.046875 450.632812 1197.03125 C 451.058594 1197.359375 451.484375 1197.683594 451.910156 1197.992188 L 452.550781 1198.445312 L 453.21875 1198.886719 L 453.917969 1199.3125 L 454.589844 1199.71875 L 455.285156 1200.109375 L 456.019531 1200.488281 L 456.71875 1200.847656 C 457.203125 1201.078125 457.691406 1201.304688 458.207031 1201.511719 L 458.9375 1201.816406 L 459.695312 1202.109375 L 460.457031 1202.378906 L 461.429688 1202.683594 C 461.886719 1202.824219 462.34375 1202.960938 462.828125 1203.078125 C 465.476562 1203.761719 468.242188 1204.125 471.101562 1204.125 L 539.230469 1204.125 L 539.230469 1131.855469 C 539.230469 1113.578125 554.132812 1098.671875 572.410156 1098.671875 L 611.828125 1098.671875 C 630.105469 1098.671875 645.011719 1113.578125 645.011719 1131.855469 L 645.011719 1204.125 L 713.167969 1204.125 C 716.027344 1204.128906 718.792969 1203.765625 721.441406 1203.078125 C 721.894531 1202.960938 722.351562 1202.824219 722.808594 1202.683594 L 723.78125 1202.378906 L 724.542969 1202.109375 L 725.300781 1201.816406 L 726.0625 1201.511719 C 726.550781 1201.304688 727.035156 1201.078125 727.523438 1200.847656 L 728.253906 1200.488281 L 728.953125 1200.109375 L 729.652344 1199.71875 L 730.351562 1199.3125 L 731.019531 1198.886719 L 731.6875 1198.445312 L 732.328125 1197.992188 C 732.785156 1197.683594 733.210938 1197.359375 733.636719 1197.03125 C 734.882812 1196.042969 736.070312 1194.972656 737.164062 1193.816406 L 737.710938 1193.234375 C 738.410156 1192.445312 739.109375 1191.628906 739.71875 1190.777344 L 740.203125 1190.132812 L 740.660156 1189.476562 L 741.085938 1188.804688 L 741.511719 1188.128906 L 741.9375 1187.4375 L 742.335938 1186.738281 L 742.699219 1186.027344 C 742.910156 1185.628906 743.09375 1185.21875 743.308594 1184.8125 L 743.734375 1183.835938 C 744.035156 1183.09375 744.339844 1182.335938 744.585938 1181.5625 C 744.769531 1181.054688 744.921875 1180.53125 745.070312 1180.011719 L 745.285156 1179.21875 C 745.4375 1178.691406 745.558594 1178.15625 745.679688 1177.617188 C 745.769531 1177.074219 745.863281 1176.53125 745.953125 1175.984375 L 746.074219 1175.160156 L 746.167969 1174.324219 L 746.257812 1173.488281 L 746.289062 1172.644531 L 746.316406 1171.796875 L 746.347656 1170.941406 L 746.347656 1017.300781 C 746.347656 1007.128906 742.273438 998.390625 734.488281 991.859375 L 620.433594 896.28125 C 607.203125 885.191406 577.0625 885.191406 563.804688 896.28125 L 449.78125 991.859375 C 441.996094 998.390625 437.921875 1007.128906 437.921875 1017.300781" stroke-linecap="round" />
</g>
</g>
</g>
</svg>